. 
 
http://www.torrenting.com          :     Once & For all ;)


               www . Torrenting . Com 

(((((((((((((= Enjoy No RAR releases =))))))))))))))))))))


...................................NFO:....................................

.                                                                                                                                Poster:[img]http://cf2.imgobject.com/t/p/w500/csbqdb7VUhGDkNsS3hjV16pwZ9e.jpg[/img]IMDB Link:http://www.imdb.com/title/tt1034032Description:Mind-control technology has taken society by a storm, a multiplayer on-line game called "Slayers" allows players to control human prisoners in mass-scale. Simon (Lerman) controls Kable (Butler), the online champion of the game. Kable's ultimate challenge becomes regaining his identity and independence by defeating the game's mastermind (Hall).GeneralComplete name                    : Gamer.2009.BDRip.x264.AC3-SiC.mkvFormat                           : MatroskaFormat version                   : Version 2File size                        : 1.37 GiBDuration                         : 1h 34mnOverall bit rate                 : 2 070 KbpsWriting application              : HandBrake 0.9.5Writing library                  : libmkv 0.6.4.1VideoID                               : 1Format                           : AVCFormat/Info                      : Advanced Video CodecFormat profile                   : High@L3.0Format settings, CABAC           : YesFormat settings, ReFrames        : 3 framesCodec ID                         : V_MPEG4/ISO/AVCDuration                         : 1h 34mnBit rate                         : 1 681 KbpsWidth                            : 720 pixelsHeight                           : 384 pixelsDisplay aspect ratio             : 1.875Frame rate mode                  : VariableFrame rate                       : 23.976 fpsColor space                      : YUVChroma subsampling               : 4:2:0Bit depth                        : 8 bitsScan type                        : ProgressiveBits/(Pixel*Frame)               : 0.254Stream size                      : 1.09 GiB (79%)Writing library                  : x264 core 112Language                         : EnglishDefault                          : YesForced                           : NoAudioID                               : 2Format                           : AC-3Format/Info                      : Audio Coding 3Mode extension                   : CM (complete main)Codec ID                         : A_AC3Duration                         : 1h 34mnBit rate mode                    : ConstantBit rate                         : 384 KbpsChannel(s)                       : 6 channelsChannel positions                : Front: L C R, Side: L R, LFESampling rate                    : 48.0 KHzBit depth                        : 16 bitsCompression mode                 : LossyStream size                      : 260 MiB (19%)Language                         : EnglishDefault                          : YesForced                           : NoScreenshots:[IMG]http://img46.imageshack.us/img46/1599/vlcsnap2011121218h29m47.png[/IMG][IMG]http://img842.imageshack.us/img842/8281/vlcsnap2011121218h29m58.png[/IMG][IMG]http://img716.imageshack.us/img716/4417/vlcsnap2011121218h35m19.png[/IMG][IMG]http://img267.imageshack.us/img267/8961/vlcsnap2011121218h29m30.png[/IMG][IMG]http://img27.imageshack.us/img27/4532/vlcsnap2011121218h32m32.png[/IMG][IMG]http://img847.imageshack.us/img847/8625/vlcsnap2011121218h35m53.png[/IMG][IMG]http://img269.imageshack.us/img269/1308/vlcsnap2011121218h33m33.png[/IMG][IMG]http://img805.imageshack.us/img805/1623/vlcsnap2011121218h31m14.png[/IMG]Note: Usual Stuff, came together nicely! ;)Source:  OursEnjoy!Respects to T00NG0D, ELEKTRI4KA, PA, YeFsTe, MrRep and everyone in the struggle...